# xmcd CD database file
# Copyright (C) 2003 Ti Kan
# 
# Track frame offsets:
#     150
#     24858
#     40285
#     61094
#     76108
#     94431
#     108598
#     128712
#     148028
#     181966
#     201022
#     231504
#     245401
#     257341
#     273666
# 
# Disc length: 3868 seconds
# 
# Revision: 1
# Processed by: cddbd v1.4PL0 Copyright (c) Steve Scherf et al.
# Submitted via: DiscPlay 4.0.4
# 
DISCID=cc0f1a0f
DTITLE=Tom Russell - Modern Art
DYEAR=1900
DGENRE=
TTITLE0=The Kid From Spavinaw
TTITLE1=The Ballad Of Sally Rose
TTITLE2=The Boy Who Cried Wolf
TTITLE3=Muhammad Ali
TTITLE4=American Hotel
TTITLE5=Racehorse Haynes
TTITLE6=The Dutchman
TTITLE7=Modern Art
TTITLE8=Isaac Lewis
TTITLE9=Bus Station
TTITLE10=Crucifix In A Death Hand
TTITLE11=Tijuana Bible
TTITLE12=Gulf Coast Highway
TTITLE13=Yosemite (Bonues Track)
TTITLE14=If god created the grape(how can the wine be bad) (Bonus Track)
EXTD=Submitted by ecto@cox.net
EXTT0=
EXTT1=
EXTT2=
EXTT3=
EXTT4=
EXTT5=
EXTT6=
EXTT7=
EXTT8=
EXTT9=
EXTT10=
EXTT11=
EXTT12=
EXTT13=
EXTT14=
PLAYORDER=
